<svg width="555" height="328" viewBox="0 0 555 328" fill="none" xmlns="http://www.w3.org/2000/svg">
<path d="M68.1999 213.1C68.1999 213.1 22.2999 214.9 29.0999 196.8C40.4999 166.5 66.6999 205.6 73.9999 205.6C69.4999 214.5 68.1999 213.1 68.1999 213.1Z" fill="white" stroke="#122D5F" stroke-width="2" stroke-miterlimit="10"/>
<path d="M29.7 198.4C29.7 198.4 34.5999 209.9 63.5999 212.4C65.3999 208.7 67.0999 202.1 67.0999 202.1C67.0999 202.1 50.4 190 46.7999 191.3C55.0999 196.5 60.3 197.2 59.7 203.2C55.7 203.9 52.3 208.7 29.7 198.4Z" fill="#CECDE0"/>
<path d="M124.5 233.1L75.2998 260.2L102.7 293.3C106.1 295.4 109.9 296.6 122.4 289.7C136.1 282.2 140.4 275.3 138.5 271.8C138.3 271.4 124.5 233.1 124.5 233.1Z" fill="white" stroke="#122D5F" stroke-width="2" stroke-miterlimit="10"/>
<path d="M103.172 252.503C116.859 244.956 126.398 236.014 124.478 232.532C122.557 229.05 109.905 232.346 96.2183 239.893C82.5314 247.441 72.9927 256.382 74.9129 259.864C76.8331 263.347 89.4852 260.051 103.172 252.503Z" fill="white" stroke="#122D5F" stroke-width="2" stroke-miterlimit="10"/>
<path d="M102.199 249.626C113.855 243.198 122.309 236.184 121.082 233.96C119.855 231.735 109.412 235.142 97.7565 241.569C86.1008 247.997 77.6466 255.011 78.8734 257.235C80.1003 259.46 90.5435 256.053 102.199 249.626Z" fill="white" stroke="#122D5F" stroke-width="2" stroke-miterlimit="10"/>
<path d="M104.5 236.9C104.1 237.2 103.5 237.6 103.1 237.9C113.3 233.1 120.4 231 121.8 233.6C123.5 236.6 115.5 243.1 102.6 250.2C102.2 250.4 101.9 250.9 101.5 251.1C100.3 252.1 99.1998 253.2 97.7998 254.1C99.5998 253.2 101.3 252.6 103.1 251.6C116.9 243.5 125.1 236.2 123.3 232.9C122 230.2 114.9 232.1 104.5 236.9Z" fill="#A77EFF"/>
<path d="M89 254.9C89 254.9 92.3 252.5 90.5 247.2C112.2 233.7 122.2 232.1 120.2 235.3C118.2 238.4 104.7 249.3 89 254.9Z" fill="#A0AEC8"/>
<path d="M78.0999 262.4L103.4 292.7C103.4 292.7 108.5 296.2 116 291.6C106.7 284.7 89.5999 260.1 89.5999 260.1C89.5999 260.1 81.6999 262.4 78.0999 262.4Z" fill="#CECDE0"/>
<path d="M121.4 240.9L135.1 279.2C135.1 279.2 138.2 275.6 137.9 274.2C137.7 273.4 124.6 236.5 124.6 236.5C124.6 236.5 123.2 239.8 121.4 240.9Z" fill="#A77EFF"/>
<path d="M94.3 253.5C94.3 253.5 55.2 214.1 64.6 200.5C74 186.9 96.9 182.5 102.4 197.5C108.9 214.9 109.8 245.1 109.8 245.1C109.8 245.1 106.2 247.5 102.3 249.6C99.1 251.3 94.3 253.5 94.3 253.5Z" fill="white" stroke="#122D5F" stroke-width="2" stroke-miterlimit="10"/>
<path d="M63.6 202.8C38.8 182.4 31 192.7 31 192.7" stroke="#122D5F" stroke-width="2" stroke-miterlimit="10"/>
<path d="M109.2 244.4C109.2 244.4 106 192.9 93.5 190.3C106.9 232.8 106.8 246.1 106.8 246.1L109.2 244.4Z" fill="#CECDE0"/>
<path d="M104.5 233.1C104.5 233.1 99.5999 171.9 80.5999 189.5L104.5 233.1Z" fill="white"/>
<path d="M104.5 233.1C103.7 228.2 102.9 223.3 102 218.4C101.1 213.5 99.9999 208.7 98.5999 203.9C97.8999 201.5 97.0999 199.2 96.0999 197C95.0999 194.8 93.9999 192.6 92.5999 190.7C91.1999 188.9 89.2999 187.4 87.1999 187.4C85.0999 187.4 82.9999 188.7 81.2999 190.3L79.8999 188.8C80.8999 187.9 81.8999 187.1 83.0999 186.5C84.2999 185.9 85.6999 185.4 87.0999 185.4C88.5999 185.4 89.9999 185.9 91.0999 186.7C92.2999 187.5 93.1999 188.5 93.9999 189.5C95.5999 191.6 96.6999 193.9 97.6999 196.3C98.6999 198.7 99.3999 201.1 100.1 203.5C101.4 208.4 102.4 213.3 103.1 218.2C103.9 223.1 104.4 228.1 104.5 233.1Z" fill="#122D5F"/>
<path d="M34.9999 208.4L31.0999 212.8" stroke="#122D5F" stroke-width="2" stroke-miterlimit="10"/>
<path d="M42.3999 217L42.7999 211.1" stroke="#122D5F" stroke-width="2" stroke-miterlimit="10"/>
<path d="M51.8998 217L50.7998 212.4" stroke="#122D5F" stroke-width="2" stroke-miterlimit="10"/>
<path d="M60.5999 217.7L65.9999 216.2" stroke="#122D5F" stroke-width="2" stroke-miterlimit="10"/>
<path d="M65.8999 225.8L69.9999 223.5" stroke="#122D5F" stroke-width="2" stroke-miterlimit="10"/>
<path d="M72.3999 233.5L74.8999 230.6" stroke="#122D5F" stroke-width="2" stroke-miterlimit="10"/>
<path d="M63.0999 191.5L68.0999 196.4" stroke="#122D5F" stroke-width="2" stroke-miterlimit="10"/>
<path d="M77.6 188.8L76.2 184.3" stroke="#122D5F" stroke-width="2" stroke-miterlimit="10"/>
<path d="M85.1998 186.4L83.2998 183" stroke="#122D5F" stroke-width="2" stroke-miterlimit="10"/>
<path d="M90.7 187.5L92.7 183.5" stroke="#122D5F" stroke-width="2" stroke-miterlimit="10"/>
<path d="M97 196.1L99 195" stroke="#122D5F" stroke-width="2" stroke-miterlimit="10"/>
<path d="M101.7 195.8L105.2 193" stroke="#122D5F" stroke-width="2" stroke-miterlimit="10"/>
<path d="M96.3999 190.2L96.8999 187" stroke="#122D5F" stroke-width="2" stroke-miterlimit="10"/>
<path d="M105.2 204.1L108.6 203.7" stroke="#122D5F" stroke-width="2" stroke-miterlimit="10"/>
<path d="M106.8 211.2L110.7 210.9" stroke="#122D5F" stroke-width="2" stroke-miterlimit="10"/>
<path d="M107.3 218.8L111.9 218.5" stroke="#122D5F" stroke-width="2" stroke-miterlimit="10"/>
<path d="M108.1 224.6H112.6" stroke="#122D5F" stroke-width="2" stroke-miterlimit="10"/>
<path d="M96.0999 203L99.0999 202.8" stroke="#122D5F" stroke-width="2" stroke-miterlimit="10"/>
<path d="M90.5999 192.9L94.2999 191.4" stroke="#122D5F" stroke-width="2" stroke-miterlimit="10"/>
<path d="M24.3999 200.5L29.0999 199.7" stroke="#122D5F" stroke-width="2" stroke-miterlimit="10"/>
<path d="M38.3999 203.2L37.5999 208.2" stroke="#122D5F" stroke-width="2" stroke-miterlimit="10"/>
<path d="M28.5 188.1L31.7 191.5" stroke="#122D5F" stroke-width="2" stroke-miterlimit="10"/>
<path d="M38 181L39.5 185.5" stroke="#122D5F" stroke-width="2" stroke-miterlimit="10"/>
<path d="M48.5 182.6V187.2" stroke="#122D5F" stroke-width="2" stroke-miterlimit="10"/>
<path d="M54.2998 190.7L57.0998 186.9" stroke="#122D5F" stroke-width="2" stroke-miterlimit="10"/>
<path d="M47.1999 191.7L46.0999 196.4" stroke="#122D5F" stroke-width="2" stroke-miterlimit="10"/>
<path d="M37 194.1L37.6 190.1" stroke="#122D5F" stroke-width="2" stroke-miterlimit="10"/>
<path d="M55.2998 201L55.9998 196.8" stroke="#122D5F" stroke-width="2" stroke-miterlimit="10"/>
<path d="M95.3 252.2C95.3 252.2 58.7 206.3 70.4 197.4C72.4 205.3 97.2 251.3 97.2 251.3L95.3 252.2Z" fill="#CECDE0"/>
<path d="M96.2997 249.4C96.2997 249.4 50.8997 180.4 81.3997 189.5L96.2997 249.4Z" fill="white"/>
<path d="M96.2998 249.4C92.6998 244.3 89.2998 239 85.9998 233.6C82.7998 228.2 79.6998 222.7 76.8998 217.1C75.4998 214.3 74.1998 211.4 73.0998 208.4C71.8998 205.5 70.8998 202.4 70.2998 199.3C69.9998 197.7 69.7998 196.1 69.8998 194.4C69.8998 193.6 70.0998 192.7 70.2998 191.8C70.5998 190.9 70.9998 190.1 71.6998 189.4C72.3998 188.7 73.2998 188.2 74.0998 188C74.4998 187.8 74.9998 187.8 75.3998 187.7C75.7998 187.7 76.2998 187.6 76.6998 187.7C78.3998 187.7 79.9998 188.1 81.5998 188.6L80.9998 190.5C79.5998 190.1 78.0998 189.8 76.6998 189.7C75.2998 189.7 73.8998 190 73.0998 190.9C72.2998 191.7 71.8998 193.1 71.7998 194.5C71.6998 195.9 71.8998 197.4 72.1998 198.9C73.3998 204.9 75.7998 210.7 78.3998 216.3C80.9998 221.9 83.8998 227.5 86.8998 233C88.3998 235.8 89.8998 238.5 91.4998 241.2C93.1998 244 94.6998 246.7 96.2998 249.4Z" fill="#122D5F"/>
<path d="M67.5 205.8L72.4 205.2" stroke="#122D5F" stroke-width="2" stroke-miterlimit="10"/>
<path d="M76.0999 214L72.3999 216.1" stroke="#122D5F" stroke-width="2" stroke-miterlimit="10"/>
<path d="M78.2 226.7L81.5 224.9" stroke="#122D5F" stroke-width="2" stroke-miterlimit="10"/>
<path d="M105.7 246.9C105.7 246.9 94.5998 195.1 82.0998 192.5C73.9998 186.8 102.1 248.9 102.1 248.9L105.7 246.9Z" fill="#CECDE0"/>
<path d="M92.5 227C91 223.9 89.5 220.7 88.1 217.6C86.7 214.4 85.4 211.2 84.2 207.9C83 204.6 81.9 201.3 81.1 197.9C80.7 196.2 80.3 194.5 80.2 192.6C80.2 191.7 80.2 190.7 80.5 189.8C80.7 189.3 80.9 188.8 81.3 188.4C81.7 188 82.2 187.7 82.8 187.8L82.9 188C82.4 188.8 82.5 189.5 82.5 190.2C82.5 190.9 82.5 191.7 82.5 192.5C82.6 194.1 82.8 195.8 83.1 197.5C83.8 200.8 84.7 204.2 85.8 207.4C86.8 210.7 87.9 214 89.1 217.2C90.3 220.5 91.5 223.7 92.7 226.9L92.5 227Z" fill="#122D5F"/>
<path d="M30.9998 192.7C30.9998 192.7 26.1998 206.2 63.3998 208" stroke="#122D5F" stroke-width="2" stroke-miterlimit="10"/>
<path d="M318.1 137L154.6 174.1C143.7 176.3 130.6 163.6 131 152.4L134.8 50.6C135.2 39.9 143.4 31 154 29.8L311.3 11C330.5 9.8 342.9 19.8 342.1 22.4L332 121.1C331.5 128.9 325.8 135.5 318.1 137Z" fill="#122D5F"/>
<path d="M324.9 141.3L158.4 174.4C147.5 176.6 137.4 168 137.8 156.8L141.6 55C142 44.3 150.2 35.4 160.8 34.2L325.6 14.8C335.8 13.6 344.7 21.9 344.1 32.2L338.7 125.3C338.3 133.3 332.6 139.8 324.9 141.3Z" fill="white" stroke="#122D5F" stroke-width="2" stroke-miterlimit="10"/>
<path d="M331.4 106.1L330.4 121.1C330.1 126.7 326 131.5 320.4 132.6L265.6 143.5" fill="white"/>
<path d="M331.4 106.1L330.4 121.1C330.1 126.7 326 131.5 320.4 132.6L265.6 143.5" stroke="#122D5F" stroke-width="2" stroke-miterlimit="10" stroke-linecap="round" stroke-linejoin="round"/>
<path d="M386.6 267.6L233 316.1C218.4 320.7 202.6 314.9 194.4 302L143.5 220.5C137.1 210.3 142.3 190.1 145.2 190.1L312.7 162C323.4 159.9 334.4 164.1 340.9 172.9L394.1 244.6C400.2 252.8 396.4 264.5 386.6 267.6Z" fill="#122D5F"/>
<path d="M388.6 257.5L234.9 306C220.3 310.6 204.5 304.8 196.3 291.9L144.4 209.4C138 199.2 143.8 185.8 155.6 183.4L314.6 151.8C325.3 149.7 336.3 153.9 342.8 162.7L396 234.4C402.2 242.6 398.4 254.4 388.6 257.5Z" fill="white" stroke="#122D5F" stroke-width="2" stroke-miterlimit="10"/>
<path d="M338.5 260.6L279.7 279.2L263.6 254.4L322.7 237.9L338.5 260.6Z" stroke="#A77EFF" stroke-width="2" stroke-miterlimit="10" stroke-linecap="round" stroke-linejoin="round"/>
<path d="M459.8 187.2C459.7 187.2 459.5 187.2 459.4 187.1L385.2 155.6C384.8 155.4 384.5 155 384.6 154.5C384.7 154 385.1 153.7 385.5 153.7L460.7 150.2C460.8 150.2 461 150.2 461.1 150.3L530.5 179.3C530.9 179.5 531.2 179.9 531.1 180.4C531 180.9 530.7 181.2 530.2 181.2L459.8 187.2Z" fill="white"/>
<path d="M460.7 151.2L530.1 180.2L459.8 186.1L385.6 154.6L460.7 151.2ZM460.7 149.2L385.5 152.7C384.6 152.7 383.8 153.4 383.6 154.3C383.4 155.2 383.9 156.1 384.8 156.5L459 188C459.2 188.1 459.5 188.2 459.8 188.2C459.9 188.2 459.9 188.2 460 188.2L530.3 182.3C531.2 182.2 532 181.5 532.1 180.6C532.2 179.7 531.7 178.8 530.9 178.4L461.5 149.4C461.3 149.3 461 149.2 460.7 149.2Z" fill="#122D5F"/>
<path d="M442.5 284.7C442.3 284.7 442.1 284.6 442 284.5L370.2 239.2C369.9 239 369.7 238.6 369.7 238.2L384.5 154.4C384.6 154.1 384.7 153.8 385 153.7C385.1 153.6 385.3 153.6 385.5 153.6C385.6 153.6 385.8 153.6 385.9 153.7L460.1 185.2C460.5 185.4 460.8 185.8 460.7 186.3L443.4 283.9C443.3 284.2 443.1 284.5 442.8 284.6C442.8 284.7 442.7 284.7 442.5 284.7Z" fill="#7939FD"/>
<path d="M385.6 154.7L459.8 186.2L442.5 283.8L370.7 238.5L385.6 154.7ZM385.6 152.7C385.3 152.7 384.9 152.8 384.6 152.9C384.1 153.2 383.7 153.7 383.6 154.3L368.8 238.1C368.7 238.9 369 239.7 369.7 240.1L441.5 285.4C441.8 285.6 442.2 285.7 442.6 285.7C442.9 285.7 443.2 285.6 443.4 285.5C444 285.2 444.4 284.7 444.6 284L461.9 186.4C462.1 185.5 461.6 184.6 460.7 184.2L386.5 152.7C386.1 152.7 385.9 152.7 385.6 152.7Z" fill="#122D5F"/>
<path d="M442.5 285C442.3 285 442 284.9 441.8 284.7C441.5 284.5 441.4 284.1 441.5 283.8L458.8 186.2C458.9 185.8 459.2 185.4 459.7 185.4C459.7 185.4 530 179.5 530.1 179.5C530.4 179.5 530.6 179.6 530.8 179.8C531 180 531.1 180.3 531 180.6L516.2 264.4C516.1 264.8 515.9 265.1 515.5 265.2L442.7 285C442.7 285 442.6 285 442.5 285Z" fill="#A77EFF"/>
<path d="M530.1 180.5L515.3 264.3L442.5 284L459.8 186.4L530.1 180.5ZM530.1 178.5C530 178.5 530 178.5 529.9 178.5L459.6 184.4C458.7 184.5 458 185.2 457.8 186L440.5 283.6C440.4 284.3 440.6 285 441.1 285.4C441.5 285.7 442 285.9 442.5 285.9C442.7 285.9 442.8 285.9 443 285.8L515.7 266.1C516.4 265.9 517 265.3 517.1 264.5L531.9 180.7C532 180.1 531.8 179.5 531.4 179C531.1 178.8 530.6 178.5 530.1 178.5Z" fill="#122D5F"/>
<path d="M380.8 181.9L453.9 219.8L524.7 210.5" stroke="#122D5F" stroke-width="2" stroke-miterlimit="10"/>
<path d="M375.4 212.3L447.9 253.2L519.6 239.4" stroke="#122D5F" stroke-width="2" stroke-miterlimit="10"/>
<path d="M390.3 250.5L406.3 163.5L481.6 159.3" stroke="#122D5F" stroke-width="2" stroke-miterlimit="10"/>
<path d="M494.3 270.6L510 181.9L441.4 151.7" stroke="#122D5F" stroke-width="2" stroke-miterlimit="10"/>
<path d="M414.4 265.8L430.7 173.4L501.6 167.7" stroke="#122D5F" stroke-width="2" stroke-miterlimit="10"/>
<path d="M469.6 277.5L486.3 183.5L417 152.8" stroke="#122D5F" stroke-width="2" stroke-miterlimit="10"/>
<path d="M418.9 235.9L396.1 223.1L401.5 193.5L424.3 205.3L418.9 235.9Z" fill="#A77EFF"/>
<path d="M475.8 247.1L498.5 242.7L503.6 214.1L481.1 217.1L475.8 247.1Z" fill="#7939FD"/>
<path d="M505.4 212.1L524.9 209.5L530.1 180.5L510.8 182.1L505.4 212.1Z" fill="#7939FD"/>
<path d="M481.3 184.9L483.2 185.7L480.1 211.9L484.9 184.6L481.3 184.9Z" fill="white"/>
<path d="M505.4 182.7L507.3 183.5L504.1 209.7L509 182.4L505.4 182.7Z" fill="white"/>
<path d="M525.8 181.2L527.7 182L524.5 208.3L529.4 180.9L525.8 181.2Z" fill="white"/>
<path d="M475.5 218L477.4 218.5L474.2 244.8L479.1 217.4L475.5 218Z" fill="white"/>
<path d="M499.7 214.5L501.6 215.3L498.4 241.6L503.3 214.2L499.7 214.5Z" fill="white"/>
<path d="M520.6 211.9L522.5 212.7L519.3 239L524.1 211.6L520.6 211.9Z" fill="white"/>
<path d="M470.5 249.7H472.2L470.8 265.2L473.6 249.1L470.5 249.7Z" fill="white"/>
<path d="M494.3 245.3L496.4 245.1L495.1 260.8L497.9 244.6L494.3 245.3Z" fill="white"/>
<path d="M515.2 241.2L517.6 241.7L515.1 263.3L519.2 240.6L515.2 241.2Z" fill="white"/>
<path d="M435 175.9H432.9L427.4 198.6L431.7 174.5L435 175.9Z" fill="#A77EFF"/>
<path d="M410.5 165.8L408.4 165.9L402.9 188.5L407.2 164.4L410.5 165.8Z" fill="#A77EFF"/>
<path d="M389.1 156.4H387.1L381.6 179.1L385.9 155L389.1 156.4Z" fill="#A77EFF"/>
<path d="M429.3 208.2L427.2 208.3L421.2 234L426 206.7L429.3 208.2Z" fill="#A77EFF"/>
<path d="M405 195.4L402.9 195.5L396.9 221.3L401.7 193.9L405 195.4Z" fill="white"/>
<path d="M384.2 184.4L382.1 184.5L376.1 210.3L380.9 182.9L384.2 184.4Z" fill="#A77EFF"/>
<path d="M423 240.6L421.4 240L417.4 255.1L420.3 239L423 240.6Z" fill="#A77EFF"/>
<path d="M399.1 227.1L397.2 226.2L393.1 241.4L396 225.2L399.1 227.1Z" fill="#A77EFF"/>
<path d="M378.8 215.5L376.5 215.1L371.4 236.3L375.4 213.5L378.8 215.5Z" fill="#A77EFF"/>
<path d="M157.7 51.2C157.5 51.3 157.4 51.5 157.2 51.6C157 51.8 156.9 52 156.8 52.2C156.7 52.4 156.6 52.7 156.6 52.9C156.6 53.2 156.6 53.4 156.8 53.6C156.9 53.8 157 54 157.2 54.2C157.6 54.5 158 54.8 158.5 54.7C158.7 54.7 158.8 54.7 159 54.6C159.3 54.5 159.6 54.4 159.8 54.1C160 54 160.1 53.8 160.3 53.7C160.5 53.5 160.6 53.3 160.7 53.1C160.8 52.9 160.9 52.6 160.9 52.4C160.9 52.1 160.9 51.9 160.7 51.7C160.6 51.5 160.5 51.3 160.3 51.1C159.9 50.8 159.5 50.5 159 50.6C158.8 50.6 158.7 50.6 158.5 50.7C158.2 50.8 158 50.9 157.7 51.2Z" fill="#CECDE0"/>
<path d="M167.5 53.2C169.9 53.2 169.9 49.4 167.5 49.4C165.1 49.5 165.1 53.2 167.5 53.2Z" fill="#CECDE0"/>
<path d="M175.2 52.3C177.6 52.3 177.6 48.5 175.2 48.5C172.8 48.5 172.8 52.3 175.2 52.3Z" fill="#CECDE0"/>
<path d="M162 66.9C159.9 70.8 157.7 74.8 155.6 78.7C154.4 80.8 157.7 82.7 158.8 80.6C160.9 76.7 163.1 72.7 165.2 68.8C166.4 66.7 163.2 64.8 162 66.9Z" fill="#CECDE0"/>
<path d="M170.1 66.4C167.6 70.3 165.2 74.3 162.7 78.2C161.4 80.3 164.7 82.1 165.9 80.1C168.4 76.2 170.8 72.2 173.3 68.3C174.6 66.3 171.3 64.4 170.1 66.4Z" fill="#CECDE0"/>
<path d="M184.4 76.6C192 75.5 199.7 75.2 207.3 73.7C214.4 72.3 211.4 61.5 204.3 62.9C196.8 64.4 189 64.7 181.4 65.8C178.4 66.2 176.8 70 177.5 72.7C178.3 75.9 181.4 77 184.4 76.6Z" fill="#CECDE0"/>
<path d="M222.6 71.8C229.6 70.4 236.4 69.6 243.5 69.5C250.7 69.3 250.8 58.1 243.5 58.2C235.4 58.4 227.5 59.4 219.6 60.9C212.5 62.4 215.5 73.2 222.6 71.8Z" fill="#CECDE0"/>
<path d="M176 83.5C170.1 86.8 170.8 96.2 176.3 99.5C178.4 100.7 180.3 97.5 178.2 96.3C175.1 94.4 174.5 88.7 177.9 86.8C180 85.6 178.1 82.3 176 83.5Z" fill="#7939FD"/>
<path d="M188.7 96.4C191.8 95.9 195 95.7 198.1 95.8C205.3 95.9 205.3 84.7 198.1 84.5C193.9 84.4 189.8 84.8 185.7 85.5C182.7 86 181 89.7 181.8 92.4C182.6 95.6 185.7 96.9 188.7 96.4Z" fill="#7939FD"/>
<path d="M213.5 80.8C208.6 84.5 207.8 91.5 211.9 96.1C213.5 97.9 216.2 95.2 214.6 93.4C212.2 90.8 212.5 86.2 215.4 84C217.4 82.7 215.5 79.4 213.5 80.8Z" fill="#7939FD"/>
<path d="M224.9 82.8C228.1 85.7 228.6 88.7 226.2 92.4C224.9 94.4 228.1 96.3 229.4 94.3C232.7 89.4 231.9 84.2 227.5 80.2C225.8 78.5 223.1 81.1 224.9 82.8Z" fill="#7939FD"/>
<path d="M243.1 75.1C241.4 75.3 240.2 76.4 239.5 77.9C238.9 79.1 239.4 84.7 238 84.7C235.8 84.8 235.6 87.7 237.5 88.4C238.8 88.9 238.5 91.6 238.9 92.7C239.3 93.8 240 94.8 240.9 95.5C242.5 96.8 244.5 97.1 245.9 95.6C247.5 93.8 244.9 91.2 243.2 92.9C243.1 93 241.7 87.8 241.5 87.4C240.8 86 239.9 85.3 238.5 84.8C238.3 86 238.2 87.3 238 88.5C239.8 88.5 241.1 87.8 242 86.2C242.9 84.7 242.3 79 244.1 78.7C246.4 78.3 245.4 74.7 243.1 75.1Z" fill="#7939FD"/>
<path d="M180.9 122.3C186.2 121.4 191.4 120.8 196.8 120.5C204 120.2 204 108.9 196.8 109.2C190.5 109.5 184.2 110.3 177.9 111.4C174.9 111.9 173.2 115.6 174 118.3C174.9 121.5 177.9 122.8 180.9 122.3Z" fill="#CECDE0"/>
<path d="M209.3 104.7C205.5 109.4 203.6 116.9 209.7 120.7C211.8 122 213.6 118.7 211.6 117.5C207.7 115.1 209.7 110.2 211.9 107.4C213.4 105.5 210.8 102.8 209.3 104.7Z" fill="#CECDE0"/>
<path d="M214.4 107.4C214.2 108.2 214 108.9 213.8 109.7C213.6 110.6 214.1 111.8 215.1 112C216.1 112.2 217.1 111.7 217.4 110.7C217.6 109.9 217.8 109.2 218 108.4C218.2 107.5 217.7 106.3 216.7 106.1C215.7 105.9 214.6 106.4 214.4 107.4Z" fill="#CECDE0"/>
<path d="M220.6 106.3C219.8 107.4 219.6 108.8 219.9 110.1C220.1 111.1 221.3 111.7 222.2 111.4C223.2 111.1 223.7 110.1 223.5 109.1C223.5 108.9 223.5 108.9 223.5 109.2C223.5 109.1 223.5 109 223.5 108.9C223.5 108.5 223.4 109.2 223.5 108.8C223.5 108.7 223.5 108.7 223.6 108.6C223.6 108.5 223.6 108.5 223.5 108.7C223.5 108.6 223.7 108.3 223.8 108.2C224.4 107.4 223.9 106.1 223.1 105.6C222.1 105.1 221.2 105.4 220.6 106.3Z" fill="#CECDE0"/>
<path d="M233.8 116.6C238.8 115.7 243.7 114.8 248.8 114.3C256 113.7 256 102.4 248.8 103C242.8 103.5 236.8 104.6 230.8 105.7C227.8 106.2 226.1 109.9 226.9 112.6C227.8 115.8 230.8 117.1 233.8 116.6Z" fill="#CECDE0"/>
<path d="M256.8 106.2C257 106.3 257.2 106.5 257.3 106.7C257.4 106.8 257.4 106.9 257.5 106.9C257.7 107.1 257.3 106.6 257.5 106.9C257.6 107.1 257.7 107.3 257.8 107.4C257.7 107.2 257.7 107.3 257.8 107.4C257.8 107.5 257.9 107.6 257.9 107.8C258.2 108.7 259.2 109.4 260.2 109.1C261.2 108.8 261.8 107.8 261.5 106.8C261.2 105.5 260.4 104.3 259.4 103.5C258.6 102.9 257.5 102.7 256.7 103.5C256.1 104.2 255.9 105.5 256.8 106.2Z" fill="#CECDE0"/>
<path d="M262.5 105.3C263.1 106.4 263.7 107.5 264.3 108.6C264.8 109.5 266 109.8 266.9 109.3C267.8 108.8 268.1 107.6 267.6 106.7C267 105.6 266.4 104.5 265.8 103.4C265.3 102.5 264.1 102.2 263.2 102.7C262.3 103.3 262.1 104.4 262.5 105.3Z" fill="#CECDE0"/>
<path d="M270.3 102.8C273.3 106.1 272.4 110.8 268.6 113C266.5 114.2 268.4 117.4 270.5 116.2C276.5 112.8 277.5 105.2 273 100.2C271.3 98.4 268.6 101 270.3 102.8Z" fill="#CECDE0"/>
<path d="M281 104.1C281 103.9 281 103.8 281 103.6C281 103.3 281 103.1 280.8 102.9C280.7 102.7 280.6 102.5 280.4 102.3C280.2 102.1 280 102 279.8 101.9C279.6 101.8 279.3 101.7 279.1 101.7C278.9 101.7 278.8 101.7 278.6 101.8C278.3 101.9 278 102 277.8 102.3C277.7 102.4 277.6 102.6 277.5 102.7C277.3 103 277.2 103.3 277.2 103.6C277.2 103.8 277.2 103.9 277.2 104.1C277.2 104.4 277.2 104.6 277.4 104.8C277.5 105 277.6 105.2 277.8 105.4C278 105.6 278.2 105.7 278.4 105.8C278.6 105.9 278.9 106 279.1 106C279.3 106 279.4 106 279.6 105.9C279.9 105.8 280.2 105.7 280.4 105.4C280.5 105.3 280.6 105.1 280.7 105C280.9 104.8 281 104.4 281 104.1Z" fill="#CECDE0"/>
<path d="M277.9 111.7C278.1 111.9 278.3 112.3 278.4 112.5C278.6 113 278.6 113.2 278.5 113.7C278.5 114.7 279.4 115.6 280.4 115.6C281.5 115.6 282.2 114.7 282.3 113.7C282.4 111.9 281.7 110.3 280.6 109C279.9 108.2 278.6 108.3 277.9 109C277.2 109.8 277.3 111 277.9 111.7Z" fill="#CECDE0"/>
<path d="M179.3 130.6C181.3 130.6 179.2 138.1 179.5 139.6C180 141.6 181.2 142.8 183.2 143.4C182.9 142.4 182.6 141.3 182.4 140.3C181.2 141.6 180.6 142.7 180.4 144.5C180.1 147.3 182.6 154.8 176.7 152.8C174.4 152 173.4 155.6 175.7 156.4C178.3 157.3 181.2 156.8 183 154.6C186 151.2 182.2 145.8 185 142.9C186 141.9 185.5 140.2 184.2 139.8C182.3 139.2 184.6 132 183.9 130.1C183.1 127.9 181.5 126.8 179.3 126.8C176.8 126.9 176.8 130.6 179.3 130.6Z" fill="#CECDE0"/>
<path d="M191.2 133.8C196.3 134.5 196.1 144.4 190.6 144C188.2 143.8 188.2 147.6 190.6 147.8C200.4 148.6 201.3 131.5 192.2 130.3C189.8 129.8 188.8 133.5 191.2 133.8Z" fill="#CECDE0"/>
<path d="M204.6 131.7C207 131.7 207 127.9 204.6 127.9C202.2 127.9 202.2 131.7 204.6 131.7Z" fill="#CECDE0"/>
<path d="M203.9 141C204.7 141.9 203.9 144 203 144.5C200.9 145.6 202.8 148.9 204.9 147.7C208.1 146 209 141 206.6 138.3C205 136.5 202.3 139.2 203.9 141Z" fill="#CECDE0"/>
<path d="M162.3 199.5L182.8 195L189.5 203.6L168.8 208.8L162.3 199.5Z" stroke="#A77EFF" stroke-width="2" stroke-miterlimit="10" stroke-linecap="round" stroke-linejoin="round"/>
<path d="M184.8 217.7L338.7 181L345.9 190.1L191.7 227.6L184.8 217.7Z" stroke="#A77EFF" stroke-width="2" stroke-miterlimit="10" stroke-linecap="round" stroke-linejoin="round"/>
<path d="M180.8 230.3L333.2 193.2L340.3 202.3L187.8 240.2L180.8 230.3Z" stroke="#A77EFF" stroke-width="2" stroke-miterlimit="10" stroke-linecap="round" stroke-linejoin="round"/>
<path d="M257.3 244.3L316.4 229.7L320.9 234.7L262.3 250.6L257.3 244.3Z" stroke="#A77EFF" stroke-width="2" stroke-miterlimit="10" stroke-linecap="round" stroke-linejoin="round"/>
<path d="M201.9 225.7L208.5 235" stroke="#A77EFF" stroke-width="2" stroke-miterlimit="10" stroke-linecap="round" stroke-linejoin="round"/>
<path d="M205.8 212.9L212.4 222.2" stroke="#A77EFF" stroke-width="2" stroke-miterlimit="10" stroke-linecap="round" stroke-linejoin="round"/>
<path d="M227.3 207.7L233.9 217" stroke="#A77EFF" stroke-width="2" stroke-miterlimit="10" stroke-linecap="round" stroke-linejoin="round"/>
<path d="M245.1 203.4L251.7 212.7" stroke="#A77EFF" stroke-width="2" stroke-miterlimit="10" stroke-linecap="round" stroke-linejoin="round"/>
<path d="M263.8 199L270.4 208.3" stroke="#A77EFF" stroke-width="2" stroke-miterlimit="10" stroke-linecap="round" stroke-linejoin="round"/>
<path d="M222.4 220.2L228.8 229.2" stroke="#A77EFF" stroke-width="2" stroke-miterlimit="10" stroke-linecap="round" stroke-linejoin="round"/>
<path d="M242.7 215.5L249.1 224.5" stroke="#A77EFF" stroke-width="2" stroke-miterlimit="10" stroke-linecap="round" stroke-linejoin="round"/>
<path d="M260.4 211.1L266.6 219.9" stroke="#A77EFF" stroke-width="2" stroke-miterlimit="10" stroke-linecap="round" stroke-linejoin="round"/>
<path d="M279 206.7L285.2 215.5" stroke="#A77EFF" stroke-width="2" stroke-miterlimit="10" stroke-linecap="round" stroke-linejoin="round"/>
<path d="M297.1 202L303.7 211.4" stroke="#A77EFF" stroke-width="2" stroke-miterlimit="10" stroke-linecap="round" stroke-linejoin="round"/>
<path d="M314.2 197.8L320.5 206.6" stroke="#A77EFF" stroke-width="2" stroke-miterlimit="10" stroke-linecap="round" stroke-linejoin="round"/>
<path d="M318.2 186.4L324.5 195.3" stroke="#A77EFF" stroke-width="2" stroke-miterlimit="10" stroke-linecap="round" stroke-linejoin="round"/>
<path d="M300.7 190.5L307.1 199.5" stroke="#A77EFF" stroke-width="2" stroke-miterlimit="10" stroke-linecap="round" stroke-linejoin="round"/>
<path d="M280.3 195.2L286.8 204.3" stroke="#A77EFF" stroke-width="2" stroke-miterlimit="10" stroke-linecap="round" stroke-linejoin="round"/>
<path d="M197.3 237.9L351.2 199.3L358.3 208.3L204.2 247.8L197.3 237.9Z" stroke="#A77EFF" stroke-width="2" stroke-miterlimit="10" stroke-linecap="round" stroke-linejoin="round"/>
<path d="M218.3 233.1L224.9 242.4" stroke="#A77EFF" stroke-width="2" stroke-miterlimit="10" stroke-linecap="round" stroke-linejoin="round"/>
<path d="M239.8 227.9L245.9 236.5" stroke="#A77EFF" stroke-width="2" stroke-miterlimit="10" stroke-linecap="round" stroke-linejoin="round"/>
<path d="M258 223.2L264.2 231.9" stroke="#A77EFF" stroke-width="2" stroke-miterlimit="10" stroke-linecap="round" stroke-linejoin="round"/>
<path d="M276.3 218.2L282.9 227.5" stroke="#A77EFF" stroke-width="2" stroke-miterlimit="10" stroke-linecap="round" stroke-linejoin="round"/>
<path d="M330.7 204.6L337 213.5" stroke="#A77EFF" stroke-width="2" stroke-miterlimit="10" stroke-linecap="round" stroke-linejoin="round"/>
<path d="M313.2 208.8L319.6 217.7" stroke="#A77EFF" stroke-width="2" stroke-miterlimit="10" stroke-linecap="round" stroke-linejoin="round"/>
<path d="M292.8 214.4L299.3 223.5" stroke="#A77EFF" stroke-width="2" stroke-miterlimit="10" stroke-linecap="round" stroke-linejoin="round"/>
<path d="M61.9 137C56 137 51.3 134.3 48.2 129.4C47.4 128.1 46.9 126.7 46.4 125.4L46.1 124.7C46.1 124.6 45.6 123.3 45.7 121C45.7 118.7 46.1 117.2 46.1 117.2C47.8 111.2 51.4 107.5 57.3 105.6V105.5C55.9 96.1 58.9 88.5 66.4 82.9C70.2 80.1 74.9 78.5 79.8 78.5C86.4 78.5 92.5 81.2 96.7 85.9C97.7 87 98.6 88.3 99.5 89.5C99.7 89.8 100 90.2 100.2 90.5C103.1 89.2 106 88.5 108.8 88.5C111.8 88.5 114.7 89.2 117.6 90.7C123.3 93.6 126.8 98.4 128 104.9C135.9 105.7 141 109.9 143.2 117.5V117.6C143.2 117.8 143.5 120 143.5 120.8C143.5 121.7 143.2 124 143.2 124.3V124.4V124.6C142.2 128.9 139.8 132.2 136.1 134.6C132.7 136.8 129 137.1 126.2 137.1H125.9C117.4 137 109.1 137 102.8 137H86.3C82.9 137 79.6 137 76.2 137C72.6 137 69.1 137 65.5 137C64.4 137 63.1 137 61.9 137Z" fill="#7939FD"/>
<path d="M79.8 79.4C85.8 79.4 91.7999 81.8 96 86.5C97.4 88.1 98.6 89.9 99.9 91.7C102.8 90.2 105.8 89.4 108.8 89.4C111.6 89.4 114.4 90.1 117.1 91.5C122.9 94.5 126.1 99.4 127.1 105.8C135 106.4 140.1 110.2 142.2 117.8C142.2 117.8 142.5 120.1 142.5 120.9C142.5 121.7 142.2 124.3 142.2 124.3C142.2 124.4 142.2 124.5 142.1 124.6C141.2 128.6 138.9 131.7 135.5 133.9C132.7 135.8 129.5 136.2 126.2 136.2C126.1 136.2 126 136.2 125.9 136.2C118.2 136.1 110.5 136.1 102.7 136.1C97.1999 136.1 91.6999 136.1 86.1999 136.1C79.2999 136.1 72.4 136.2 65.5 136.2C64.2 136.2 63 136.2 61.7 136.2C56.2 136.2 51.8 133.8 48.9 129.1C48 127.7 47.5 126 46.9 124.6C46.9 124.6 46.5 123.4 46.5 121.3C46.5 119.1 46.9 117.7 46.9 117.7C48.5 112 51.8 108.6 57.5 106.7C58.3 106.5 58.0999 106 58.0999 105.5C56.6999 96.6 59.6 89.3 66.8 83.8C70.7 80.7 75.2 79.4 79.8 79.4ZM79.8 77.4C74.7 77.4 69.7 79 65.8 82C58.2 87.8 55 95.5 56.2 104.9C50.4 107 46.9 110.9 45.2 116.9C45.1 117.1 44.8 118.6 44.7 121C44.7 123.4 45.1 124.8 45.2 125V125.1C45.3 125.3 45.4 125.5 45.5 125.8C46 127.1 46.6 128.6 47.4 130C50.7 135.3 55.7 138.1 61.9 138.1C63.2 138.1 64.3999 138.1 65.6999 138.1C69.2999 138.1 72.8 138.1 76.4 138.1C79.8 138.1 83.0999 138.1 86.5 138.1H92.1999C95.7999 138.1 99.4 138.1 103 138.1C109.3 138.1 117.7 138.1 126.1 138.2H126.4C129.4 138.2 133.2 137.9 136.8 135.6C140.7 133.1 143.2 129.5 144.3 125.1V125V124.8C144.3 124.7 144.3 124.7 144.3 124.6C144.4 124.2 144.7 121.9 144.6 121C144.6 120.1 144.3 118.1 144.3 117.7C144.3 117.6 144.3 117.5 144.2 117.4C142 109.6 136.8 105.1 128.9 104.1C127.5 97.6 123.9 92.9 118.1 89.9C115.1 88.4 112 87.6 108.9 87.6C106.2 87.6 103.4 88.2 100.6 89.4C100.5 89.3 100.4 89.2 100.3 89C99.4 87.8 98.5 86.5 97.5 85.3C93.0999 80.2 86.6 77.4 79.8 77.4Z" fill="#122D5F"/>
<path d="M66.7 92.7C66.7 86.4 84.3 80.2 91.7 94.9" stroke="#8D64FF" stroke-width="3" stroke-miterlimit="10" stroke-linecap="round" stroke-linejoin="round"/>
<path d="M104.6 95.1C104.6 95.1 119.8 92.6 121.4 106.3" stroke="#8D64FF" stroke-width="3" stroke-miterlimit="10" stroke-linecap="round" stroke-linejoin="round"/>
<path d="M130.8 112.3C130.8 112.3 140.5 114.4 138.4 125.6" stroke="#8D64FF" stroke-width="3" stroke-miterlimit="10" stroke-linecap="round" stroke-linejoin="round"/>
<path d="M57.7 111.7C57.7 111.7 54.1 114.7 54 117.4" stroke="#8D64FF" stroke-width="3" stroke-miterlimit="10" stroke-linecap="round" stroke-linejoin="round"/>
<path d="M123.7 220.2C123.7 220.2 196 191.4 257.3 252.2C311.6 306 382.7 310.3 413.3 292" stroke="#7939FD" stroke-width="2" stroke-miterlimit="10" stroke-linecap="round" stroke-linejoin="round"/>
<path d="M492.2 139C493.1 143.6 493.7 148.5 494.1 153.7" stroke="#7939FD" stroke-width="2" stroke-miterlimit="10" stroke-linecap="round" stroke-linejoin="round"/>
<path d="M454.7 80C458.8 82.9 462.6 86.1 466.3 89.7" stroke="#7939FD" stroke-width="2" stroke-miterlimit="10" stroke-linecap="round" stroke-linejoin="round"/>
<path d="M349.7 54C349.7 54 358 53.4 370.7 54.1" stroke="#7939FD" stroke-width="2" stroke-miterlimit="10" stroke-linecap="round" stroke-linejoin="round"/>
<path d="M128.1 71.3C128.1 71.3 118.5 72.6 110 78.7" stroke="#7939FD" stroke-width="2" stroke-miterlimit="10" stroke-linecap="round" stroke-linejoin="round"/>
<path d="M64.6 244.5C11.4 259.9 -18.7 191.7 39.6 132" stroke="#7939FD" stroke-width="2" stroke-miterlimit="10" stroke-linecap="round" stroke-linejoin="round"/>
<path d="M413.3 116.1L378 94.1V40.2L413.3 62.2V116.1Z" fill="white" stroke="#122D5F" stroke-width="2" stroke-miterlimit="10" stroke-linecap="round" stroke-linejoin="round"/>
<path d="M413.3 116L448.6 94V40.1L413.3 62.1V116Z" fill="#CECDE0" stroke="#122D5F" stroke-width="2" stroke-miterlimit="10" stroke-linecap="round" stroke-linejoin="round"/>
<path d="M413.3 62.2L378 40.6L413.3 19.7L448.6 40.6L413.3 62.2Z" fill="white" stroke="#122D5F" stroke-width="2" stroke-miterlimit="10" stroke-linecap="round" stroke-linejoin="round"/>
<path d="M390.2 54.2L407.9 65" stroke="#122D5F" stroke-width="2" stroke-miterlimit="10" stroke-linecap="round" stroke-linejoin="round"/>
<path d="M386.2 51.7L386.5 51.8" stroke="#122D5F" stroke-width="2" stroke-miterlimit="10" stroke-linecap="round" stroke-linejoin="round"/>
<path d="M382.4 49.5L382.6 49.6" stroke="#122D5F" stroke-width="2" stroke-miterlimit="10" stroke-linecap="round" stroke-linejoin="round"/>
<path d="M390.2 64.3L407.9 75.4" stroke="#122D5F" stroke-width="2" stroke-miterlimit="10" stroke-linecap="round" stroke-linejoin="round"/>
<path d="M386.2 61.7L386.5 61.9" stroke="#122D5F" stroke-width="2" stroke-miterlimit="10" stroke-linecap="round" stroke-linejoin="round"/>
<path d="M382.4 59.5L382.6 59.6" stroke="#122D5F" stroke-width="2" stroke-miterlimit="10" stroke-linecap="round" stroke-linejoin="round"/>
<path d="M390.2 74.6L407.9 85.6" stroke="#122D5F" stroke-width="2" stroke-miterlimit="10" stroke-linecap="round" stroke-linejoin="round"/>
<path d="M386.2 72L386.5 72.1" stroke="#122D5F" stroke-width="2" stroke-miterlimit="10" stroke-linecap="round" stroke-linejoin="round"/>
<path d="M382.4 69.7L382.6 69.8" stroke="#122D5F" stroke-width="2" stroke-miterlimit="10" stroke-linecap="round" stroke-linejoin="round"/>
<path d="M390.2 84.8L407.9 95.9" stroke="#122D5F" stroke-width="2" stroke-miterlimit="10" stroke-linecap="round" stroke-linejoin="round"/>
<path d="M386.2 82.2L386.5 82.4" stroke="#122D5F" stroke-width="2" stroke-miterlimit="10" stroke-linecap="round" stroke-linejoin="round"/>
<path d="M382.4 80L382.6 80.1" stroke="#122D5F" stroke-width="2" stroke-miterlimit="10" stroke-linecap="round" stroke-linejoin="round"/>
<path d="M390.2 95L407.9 106.1" stroke="#122D5F" stroke-width="2" stroke-miterlimit="10" stroke-linecap="round" stroke-linejoin="round"/>
<path d="M386.2 92.5L386.5 92.6" stroke="#122D5F" stroke-width="2" stroke-miterlimit="10" stroke-linecap="round" stroke-linejoin="round"/>
<path d="M382.4 90.2L382.6 90.3" stroke="#122D5F" stroke-width="2" stroke-miterlimit="10" stroke-linecap="round" stroke-linejoin="round"/>
<path d="M378 52.1L413.3 73.7" stroke="#122D5F" stroke-width="2" stroke-miterlimit="10" stroke-linecap="round" stroke-linejoin="round"/>
<path d="M448.6 52.4L413.3 74" stroke="#122D5F" stroke-width="2" stroke-miterlimit="10" stroke-linecap="round" stroke-linejoin="round"/>
<path d="M378 62.1L413.3 83.7" stroke="#122D5F" stroke-width="2" stroke-miterlimit="10" stroke-linecap="round" stroke-linejoin="round"/>
<path d="M448.6 62.4L413.3 84" stroke="#122D5F" stroke-width="2" stroke-miterlimit="10" stroke-linecap="round" stroke-linejoin="round"/>
<path d="M378 72.1L413.3 93.7" stroke="#122D5F" stroke-width="2" stroke-miterlimit="10" stroke-linecap="round" stroke-linejoin="round"/>
<path d="M448.6 72.4L413.3 94" stroke="#122D5F" stroke-width="2" stroke-miterlimit="10" stroke-linecap="round" stroke-linejoin="round"/>
<path d="M378 82.1L413.3 103.7" stroke="#122D5F" stroke-width="2" stroke-miterlimit="10" stroke-linecap="round" stroke-linejoin="round"/>
<path d="M448.6 82.4L413.3 104" stroke="#122D5F" stroke-width="2" stroke-miterlimit="10" stroke-linecap="round" stroke-linejoin="round"/>
<path d="M482.3 136.6C482.2 136.6 482.1 136.6 482.1 136.6C480.8 136.5 479.6 136.4 478.3 136.3C477.5 136.2 476.9 135.8 476.7 134.8L476.5 134.1C476 132.2 475.5 130.4 475 128.5C475 128.5 474.9 128.3 474.8 128.2C474.7 128.1 474.7 128.1 474.6 128C473.9 127.4 473.2 127.1 472.3 127.1C471.7 127.1 470.9 127.2 470 127.6C468.8 128 467.6 128.2 466.5 128.5L466.1 128.6C466 128.6 465.9 128.6 465.8 128.6C465.3 128.6 464.7 128.4 464.3 127.9C463.5 126.8 462.7 125.6 461.9 124.3C461.5 123.7 461.9 122.9 462.1 122.5C463.2 121 464.5 119.2 465.9 117.5C466.1 117.3 466.1 117.1 466.1 116.5C466.1 115 465.5 114 463.9 113C463 112.5 462.3 111.8 461.5 111.2C461.1 110.9 460.8 110.6 460.4 110.3C459.7 109.7 459.4 109.1 459.7 108.2C459.9 107.6 460.1 107 460.3 106.4C460.5 105.7 460.7 105.1 461 104.4C461.2 103.8 461.9 103.3 462.5 103.3C464.5 103.2 466.5 103.1 468.9 103.1C469.4 103.1 469.6 103 469.7 102.8C470 102.5 470.3 102.1 470.6 101.8C470.8 101.6 471 101.4 471.2 101.1V101C471.2 100.1 471.2 99.3 471.2 98.4C471.2 97 471.2 95.6 471.2 94.1C471.2 93.5 471.7 92.8 472.2 92.5C473.3 92.1 474.3 91.7 475.4 91.3L476 91.1C476.2 91 476.4 91 476.5 91C476.6 91 476.6 91 476.7 91C477 91 477.3 91.1 477.5 91.4C477.5 91.4 477.8 91.8 477.9 91.9L478.8 93C479.9 94.3 481.1 95.7 482.3 97C483.3 97.1 484.1 97.2 484.9 97.2C484.9 97.2 485 97.2 485 97.1C486.5 95.9 488.2 94.5 490 93C490.3 92.8 490.7 92.5 491.3 92.5C491.7 92.5 492 92.6 492.4 92.9C493.3 93.5 494.3 94 495.4 94.7C496.2 95.1 496.5 95.8 496.3 96.7C495.8 99.1 495.5 101.2 495.1 103.3C495.1 103.3 495.1 103.5 495.2 103.6C495.4 104 495.6 104.3 495.8 104.6C496 104.9 496.1 105.1 496.3 105.4C496.4 105.5 496.5 105.6 496.9 105.7C498 105.9 499.1 106.2 500.2 106.4C501.1 106.6 502 106.8 502.9 107C503.9 107.2 504.4 107.8 504.6 108.8C504.7 109.4 504.8 109.9 504.8 110.5C504.9 111.2 505 111.9 505.1 112.6C505.2 113.3 504.7 113.9 504.2 114.2C502.1 115.4 500.3 116.3 498.6 117.1C498 117.4 497.9 117.5 497.9 117.7C497.9 118 497.8 118.2 497.7 118.4C497.1 119.3 497.2 120.1 498 121.5C498.8 122.9 499.5 124.3 500.1 125.7L500.3 126C500.6 126.6 500.4 127.4 500 127.9C499.1 128.9 498.2 129.9 497.2 130.8C496.8 131.2 496.1 131.3 495.9 131.3C495.7 131.3 495.5 131.3 495.3 131.2C493.3 130.4 491.5 129.6 489.8 128.8C489.5 128.7 489.2 128.5 488.9 128.5C488.8 128.5 488.7 128.5 488.5 128.6C488.2 128.8 487.8 128.9 487.5 129C486.8 129.1 486.4 129.6 485.9 130.7C485.5 131.7 485 132.6 484.6 133.6C484.3 134.2 484 134.9 483.7 135.5C483.6 136.4 482.9 136.6 482.3 136.6ZM482.3 108.3C480.3 108.3 478.5 109.3 477.7 110.9C477 112.2 476.9 113.7 477.3 115.1C477.7 116.4 478.7 117.5 479.9 118.2C480.7 118.6 481.4 118.8 482.3 118.8C484.3 118.8 486.1 117.7 487 115.8C488.3 113.3 487.1 110.1 484.6 108.8C483.9 108.5 483.1 108.3 482.3 108.3Z" fill="#A77EFF"/>
<path d="M476.8 92.1C477 92.3 477.1 92.4 477.2 92.6C478.7 94.3 480.1 96 481.6 97.7C481.7 97.9 482 98 482.2 98C483.1 98.1 484 98.2 484.9 98.2C485.2 98.2 485.5 98.1 485.7 97.9C487.4 96.5 489.1 95.2 490.7 93.8C490.9 93.6 491.2 93.5 491.4 93.5C491.6 93.5 491.8 93.6 492 93.7C493 94.3 494.1 94.9 495.1 95.5C495.5 95.7 495.6 95.9 495.5 96.4C495.1 98.6 494.7 100.8 494.3 103C494.2 103.3 494.3 103.7 494.5 104C494.8 104.6 495.3 105.2 495.6 105.8C495.9 106.3 496.3 106.5 496.9 106.6C498.9 107 500.9 107.5 503 107.9C503.6 108 503.8 108.3 503.9 108.8C504.1 110.1 504.3 111.3 504.4 112.6C504.4 112.8 504.2 113.1 504 113.2C502.2 114.2 500.3 115.2 498.5 116.1C497.9 116.4 497.3 116.8 497.3 117.5C497.3 117.6 497.3 117.7 497.2 117.8C496.3 119.3 496.7 120.6 497.5 121.9C498.3 123.3 499 124.9 499.7 126.4C499.8 126.6 499.7 127 499.6 127.2C498.7 128.2 497.8 129.1 496.9 130C496.8 130.1 496.5 130.2 496.3 130.2C496.2 130.2 496.1 130.2 496.1 130.2C494.3 129.4 492.4 128.7 490.6 127.8C490.2 127.6 489.7 127.4 489.3 127.4C489 127.4 488.7 127.5 488.4 127.7C488.2 127.8 488 127.9 487.8 127.9C486.5 128.2 485.9 129.1 485.5 130.2C484.8 131.8 484 133.4 483.3 135C483.1 135.4 482.9 135.6 482.5 135.6H482.4C481.1 135.5 479.9 135.4 478.6 135.3C478.1 135.3 478 135 477.9 134.6C477.4 132.5 476.8 130.4 476.2 128.3C476.1 128 475.8 127.7 475.5 127.4C475.5 127.4 475.5 127.4 475.4 127.4C474.5 126.5 473.5 126.2 472.4 126.2C471.6 126.2 470.7 126.4 469.8 126.7C468.6 127.1 467.3 127.4 466 127.7H465.9C465.7 127.7 465.3 127.6 465.2 127.4C464.4 126.2 463.6 125.1 462.9 123.9C462.8 123.8 463 123.4 463.1 123.2C464.3 121.5 465.6 119.8 466.9 118.2C467.3 117.7 467.3 117.2 467.3 116.6C467.3 114.5 466.3 113.3 464.7 112.2C463.5 111.5 462.4 110.5 461.3 109.6C461 109.3 460.8 109.1 461 108.7C461.4 107.5 461.8 106.2 462.2 104.9C462.3 104.7 462.6 104.5 462.8 104.4C464.9 104.3 467 104.2 469.1 104.2C469.7 104.2 470.2 104.1 470.7 103.5C471.2 102.9 471.8 102.4 472.3 101.8C472.4 101.6 472.5 101.4 472.5 101.1C472.5 98.8 472.4 96.5 472.5 94.2C472.5 94 472.7 93.6 472.9 93.6C474.2 93.1 475.4 92.6 476.7 92.1C476.5 92.1 476.7 92.1 476.8 92.1ZM482.3 119.8C484.6 119.8 486.8 118.5 487.9 116.3C489.4 113.3 488.1 109.6 485 108C484.1 107.6 483.2 107.3 482.2 107.3C480 107.3 477.7 108.5 476.7 110.5C475 113.7 476.2 117.5 479.4 119.1C480.3 119.6 481.3 119.8 482.3 119.8ZM476.8 90.1C476.7 90.1 476.6 90.1 476.4 90.1C476.2 90.1 475.9 90.2 475.7 90.3L475 90.5C473.9 90.9 472.8 91.3 471.8 91.7C470.9 92.1 470.2 93.2 470.2 94.2C470.2 95.6 470.2 97 470.2 98.4C470.2 99.2 470.2 100 470.2 100.7C470.1 100.8 470 100.9 469.9 101C469.6 101.3 469.3 101.6 469 102H468.9C466.6 102.1 464.5 102.1 462.5 102.2C461.5 102.3 460.4 103 460.1 104C459.9 104.7 459.6 105.4 459.4 106C459.2 106.6 459 107.2 458.8 107.8C458.6 108.5 458.4 109.9 459.8 111C460.2 111.3 460.5 111.6 460.9 111.9C461.7 112.5 462.5 113.2 463.4 113.8C464.8 114.7 465.1 115.4 465.1 116.4C465.1 116.5 465.1 116.7 465.1 116.8C463.7 118.6 462.4 120.3 461.3 121.8C460.8 122.5 460.4 123.7 461 124.7C461.8 126 462.6 127.2 463.4 128.3C464 129.1 465 129.4 465.7 129.4C465.9 129.4 466.1 129.4 466.3 129.3L466.7 129.2C467.9 128.9 469.1 128.7 470.3 128.3C471.1 128 471.7 127.9 472.3 127.9C472.9 127.9 473.4 128.1 473.9 128.6C473.9 128.7 474 128.7 474 128.8C474 128.8 474 128.8 474.1 128.9C474.6 130.7 475.1 132.5 475.5 134.3L475.7 135C476.2 136.8 477.5 137.2 478.2 137.2C479.3 137.3 480.5 137.4 481.9 137.5C482 137.5 482.1 137.5 482.2 137.5C483.4 137.5 484.3 136.9 484.8 135.7C485.1 135.1 485.4 134.4 485.7 133.8C486.1 132.9 486.6 131.9 487 130.9C487.4 129.9 487.6 129.8 487.9 129.8C488.3 129.7 488.7 129.6 489.1 129.4C489.2 129.4 489.3 129.5 489.5 129.6C491.3 130.4 493.1 131.2 495.1 132C495.4 132.1 495.7 132.2 496.1 132.2C496.5 132.2 497.4 132.1 498.1 131.5C499.1 130.6 500 129.6 500.9 128.6C501.6 127.8 501.8 126.5 501.3 125.6L501.1 125.3C500.4 123.9 499.8 122.4 498.9 121C498.2 119.7 498.3 119.3 498.5 118.9C498.7 118.6 498.8 118.3 498.9 118C498.9 118 499 117.9 499.1 117.9C500.8 117 502.6 116.1 504.7 115C505.6 114.5 506.2 113.4 506.1 112.4C506 111.7 505.9 111 505.8 110.3C505.7 109.7 505.6 109.2 505.6 108.6C505.4 107.2 504.5 106.2 503.1 105.9C502.2 105.7 501.3 105.5 500.4 105.3C499.3 105.1 498.2 104.8 497 104.6C496.9 104.4 496.7 104.2 496.6 104C496.4 103.7 496.2 103.4 496.1 103.1C496.4 101.1 496.8 99.1 497.2 96.8C497.4 95.5 496.9 94.4 495.8 93.8C494.7 93.2 493.7 92.6 492.8 92.1C492.3 91.8 491.7 91.6 491.2 91.6C490.2 91.6 489.5 92.2 489.2 92.4C487.5 93.8 485.9 95.2 484.4 96.3C483.9 96.3 483.3 96.2 482.6 96.1C481.5 94.8 480.4 93.6 479.3 92.3L478.5 91.3C478.4 91.2 478.4 91.1 478.3 91L478.2 90.8C478 90.4 477.4 90.1 476.8 90.1ZM482.3 117.8C481.6 117.8 481 117.6 480.4 117.3C479.4 116.8 478.6 115.9 478.3 114.8C477.9 113.7 478.1 112.5 478.6 111.4C479.3 110.1 480.8 109.3 482.3 109.3C483 109.3 483.6 109.4 484.1 109.7C486.2 110.8 487.1 113.4 486.1 115.3C485.3 116.8 483.9 117.8 482.3 117.8Z" fill="#122D5F"/>
<path d="M293.6 39.3C285.9 49.3 280.6 60.7 275.9 72.3C274.8 75 273.3 81.5 274.6 84.3C276.5 88.1 280.3 90.7 285.2 90.3C292.2 89.8 303.3 89 311.7 87.8C313.6 87.5 318.1 86.6 319.7 85.8C323.8 83.8 324.4 79.7 324.3 76C324 66.5 312.7 44.1 309.9 39.9C303.1 29.6 295 36.9 293.6 39.3Z" fill="white"/>
<path d="M292 38.4C286.4 45.8 282 53.9 278.2 62.4C275.6 68.2 272.4 74.3 272.3 80.8C272 96.2 292.9 91.8 302.2 90.9C308.1 90.3 316.1 90.3 321.4 87.1C326 84.4 326.7 78.8 326.1 73.9C324.7 63.2 319 52.3 313.9 42.9C311.5 38.5 308.5 33.4 303 32.8C298.6 32.3 294.3 34.9 292 38.4C290.7 40.4 293.9 42.3 295.2 40.3C299 34.5 305.4 36.4 308.7 41.6C310.9 45 312.6 48.7 314.3 52.4C317.8 59.7 329.3 81.1 316.6 84.9C309.9 86.9 302.4 87.2 295.5 87.7C289.3 88.2 277.7 90.9 276.1 82.2C274.9 75.7 279.9 67.5 282.5 61.9C286.1 54.3 290.2 47.1 295.2 40.4C296.7 38.3 293.4 36.5 292 38.4Z" fill="#7939FD"/>
<path d="M300.4 53.6C300.1 58.7 299.7 63.8 299.4 68.9C299.2 71.3 303 71.3 303.2 68.9C303.5 63.8 303.9 58.7 304.2 53.6C304.3 51.2 300.6 51.2 300.4 53.6Z" fill="#7939FD"/>
<path d="M298.4 76.7C298.4 76.9 298.3 77.2 298.3 77.4C298.2 77.6 298.2 77.9 298.3 78.1C298.3 78.3 298.4 78.6 298.5 78.8C298.7 79.2 299.2 79.6 299.6 79.7C300.1 79.8 300.6 79.8 301 79.5C301.1 79.4 301.3 79.3 301.4 79.2C301.6 79 301.8 78.7 301.9 78.4C301.9 78.2 302 77.9 302 77.7C302.1 77.5 302.1 77.2 302 77C302 76.8 301.9 76.5 301.8 76.3C301.6 75.9 301.1 75.5 300.7 75.4C300.2 75.3 299.7 75.3 299.3 75.6C299.2 75.7 299 75.8 298.9 75.9C298.6 76.1 298.5 76.4 298.4 76.7Z" fill="#7939FD"/>
<path d="M374.4 159.8L377.5 143.8L394.7 142.8" stroke="#A77EFF" stroke-width="2" stroke-miterlimit="10" stroke-linecap="round" stroke-linejoin="round"/>
<path d="M428.2 288.4L440.5 296.8L455.5 293.1" stroke="#A77EFF" stroke-width="2" stroke-miterlimit="10" stroke-linecap="round" stroke-linejoin="round"/>
<path d="M528 168L541.4 174.4L538.6 191.5" stroke="#A77EFF" stroke-width="2" stroke-miterlimit="10" stroke-linecap="round" stroke-linejoin="round"/>
</svg>
